solid OpenSCAD_Model
  facet normal -1 0 0
    outer loop
      vertex -1 47.5 0
      vertex -1 63 1.5
      vertex -1 63 0
    endloop
  endfacet
  facet normal -1 -0 0
    outer loop
      vertex -1 63 1.5
      vertex -1 47.5 0
      vertex -1 47.5 1.5
    endloop
  endfacet
  facet normal -1 0 0
    outer loop
      vertex -1 -1 0
      vertex -1 2.5 1.5
      vertex -1 2.5 0
    endloop
  endfacet
  facet normal -1 -0 0
    outer loop
      vertex -1 2.5 1.5
      vertex -1 -1 0
      vertex -1 -1 1.5
    endloop
  endfacet
  facet normal -1 0 0
    outer loop
      vertex -1 12.5 0
      vertex -1 37.5 1.5
      vertex -1 37.5 0
    endloop
  endfacet
  facet normal -1 -0 0
    outer loop
      vertex -1 37.5 1.5
      vertex -1 12.5 0
      vertex -1 12.5 1.5
    endloop
  endfacet
  facet normal 1 -0 0
    outer loop
      vertex -1 37.5 10
      vertex -1 47.5 1.5
      vertex -1 47.5 10
    endloop
  endfacet
  facet normal 1 0 0
    outer loop
      vertex -1 47.5 1.5
      vertex -1 37.5 10
      vertex -1 37.5 1.5
    endloop
  endfacet
  facet normal 1 -0 0
    outer loop
      vertex -1 2.5 10
      vertex -1 12.5 1.5
      vertex -1 12.5 10
    endloop
  endfacet
  facet normal 1 0 0
    outer loop
      vertex -1 12.5 1.5
      vertex -1 2.5 10
      vertex -1 2.5 1.5
    endloop
  endfacet
  facet normal 1 -0 0
    outer loop
      vertex 63 -1 1.5
      vertex 63 2.5 0
      vertex 63 2.5 1.5
    endloop
  endfacet
  facet normal 1 0 0
    outer loop
      vertex 63 2.5 0
      vertex 63 -1 1.5
      vertex 63 -1 0
    endloop
  endfacet
  facet normal 1 -0 0
    outer loop
      vertex 63 47.5 1.5
      vertex 63 63 0
      vertex 63 63 1.5
    endloop
  endfacet
  facet normal 1 0 0
    outer loop
      vertex 63 63 0
      vertex 63 47.5 1.5
      vertex 63 47.5 0
    endloop
  endfacet
  facet normal 1 -0 0
    outer loop
      vertex 63 12.5 1.5
      vertex 63 37.5 0
      vertex 63 37.5 1.5
    endloop
  endfacet
  facet normal 1 0 0
    outer loop
      vertex 63 37.5 0
      vertex 63 12.5 1.5
      vertex 63 12.5 0
    endloop
  endfacet
  facet normal -1 0 0
    outer loop
      vertex 63 37.5 1.5
      vertex 63 47.5 10
      vertex 63 47.5 1.5
    endloop
  endfacet
  facet normal -1 -0 0
    outer loop
      vertex 63 47.5 10
      vertex 63 37.5 1.5
      vertex 63 37.5 10
    endloop
  endfacet
  facet normal -1 0 0
    outer loop
      vertex 63 2.5 1.5
      vertex 63 12.5 10
      vertex 63 12.5 1.5
    endloop
  endfacet
  facet normal -1 -0 0
    outer loop
      vertex 63 12.5 10
      vertex 63 2.5 1.5
      vertex 63 2.5 10
    endloop
  endfacet
  facet normal 0 0 -1
    outer loop
      vertex -2.5 37.5 0
      vertex -1 47.5 0
      vertex -1 37.5 0
    endloop
  endfacet
  facet normal -0 0 -1
    outer loop
      vertex -1 47.5 0
      vertex -2.5 37.5 0
      vertex -2.5 47.5 0
    endloop
  endfacet
  facet normal 0 0 -1
    outer loop
      vertex -2.5 2.5 0
      vertex -1 12.5 0
      vertex -1 2.5 0
    endloop
  endfacet
  facet normal -0 0 -1
    outer loop
      vertex -1 12.5 0
      vertex -2.5 2.5 0
      vertex -2.5 12.5 0
    endloop
  endfacet
  facet normal 0 0 -1
    outer loop
      vertex -1 2.5 0
      vertex 63 2.5 0
      vertex 63 -1 0
    endloop
  endfacet
  facet normal 0 0 -1
    outer loop
      vertex 63 2.5 0
      vertex -1 2.5 0
      vertex 63 12.5 0
    endloop
  endfacet
  facet normal 0 0 -1
    outer loop
      vertex 63 12.5 0
      vertex -1 12.5 0
      vertex 63 37.5 0
    endloop
  endfacet
  facet normal 0 0 -1
    outer loop
      vertex -1 37.5 0
      vertex 63 37.5 0
      vertex -1 12.5 0
    endloop
  endfacet
  facet normal 0 0 -1
    outer loop
      vertex -1 2.5 0
      vertex 63 -1 0
      vertex -1 -1 0
    endloop
  endfacet
  facet normal -0 0 -1
    outer loop
      vertex 63 12.5 0
      vertex -1 2.5 0
      vertex -1 12.5 0
    endloop
  endfacet
  facet normal 0 0 -1
    outer loop
      vertex 63 37.5 0
      vertex -1 37.5 0
      vertex 63 47.5 0
    endloop
  endfacet
  facet normal 0 0 -1
    outer loop
      vertex -1 47.5 0
      vertex 63 47.5 0
      vertex -1 37.5 0
    endloop
  endfacet
  facet normal 0 0 -1
    outer loop
      vertex 63 47.5 0
      vertex -1 47.5 0
      vertex 63 63 0
    endloop
  endfacet
  facet normal -0 0 -1
    outer loop
      vertex 63 63 0
      vertex -1 47.5 0
      vertex -1 63 0
    endloop
  endfacet
  facet normal 0 0 -1
    outer loop
      vertex 63 2.5 0
      vertex 64.5 12.5 0
      vertex 64.5 2.5 0
    endloop
  endfacet
  facet normal -0 0 -1
    outer loop
      vertex 64.5 12.5 0
      vertex 63 2.5 0
      vertex 63 12.5 0
    endloop
  endfacet
  facet normal 0 0 -1
    outer loop
      vertex 63 37.5 0
      vertex 64.5 47.5 0
      vertex 64.5 37.5 0
    endloop
  endfacet
  facet normal -0 0 -1
    outer loop
      vertex 64.5 47.5 0
      vertex 63 37.5 0
      vertex 63 47.5 0
    endloop
  endfacet
  facet normal 0 -1 0
    outer loop
      vertex -1 -1 0
      vertex 63 -1 1.5
      vertex -1 -1 1.5
    endloop
  endfacet
  facet normal 0 -1 -0
    outer loop
      vertex 63 -1 1.5
      vertex -1 -1 0
      vertex 63 -1 0
    endloop
  endfacet
  facet normal 0 1 -0
    outer loop
      vertex 63 63 0
      vertex -1 63 1.5
      vertex 63 63 1.5
    endloop
  endfacet
  facet normal 0 1 0
    outer loop
      vertex -1 63 1.5
      vertex 63 63 0
      vertex -1 63 0
    endloop
  endfacet
  facet normal -1 0 0
    outer loop
      vertex -2.5 2.5 0
      vertex -2.5 12.5 10
      vertex -2.5 12.5 0
    endloop
  endfacet
  facet normal -1 -0 0
    outer loop
      vertex -2.5 12.5 10
      vertex -2.5 2.5 0
      vertex -2.5 2.5 10
    endloop
  endfacet
  facet normal -0 0 1
    outer loop
      vertex -2.5 12.5 10
      vertex -1 2.5 10
      vertex -1 12.5 10
    endloop
  endfacet
  facet normal 0 0 1
    outer loop
      vertex -1 2.5 10
      vertex -2.5 12.5 10
      vertex -2.5 2.5 10
    endloop
  endfacet
  facet normal -0 0 1
    outer loop
      vertex 63 12.5 10
      vertex 64.5 2.5 10
      vertex 64.5 12.5 10
    endloop
  endfacet
  facet normal 0 0 1
    outer loop
      vertex 64.5 2.5 10
      vertex 63 12.5 10
      vertex 63 2.5 10
    endloop
  endfacet
  facet normal 1 -0 0
    outer loop
      vertex 64.5 2.5 10
      vertex 64.5 12.5 0
      vertex 64.5 12.5 10
    endloop
  endfacet
  facet normal 1 0 0
    outer loop
      vertex 64.5 12.5 0
      vertex 64.5 2.5 10
      vertex 64.5 2.5 0
    endloop
  endfacet
  facet normal 0 1 0
    outer loop
      vertex 64.5 12.5 10
      vertex 63 12.5 1.5
      vertex 63 12.5 10
    endloop
  endfacet
  facet normal 0 1 -0
    outer loop
      vertex 64.5 12.5 0
      vertex 63 12.5 1.5
      vertex 64.5 12.5 10
    endloop
  endfacet
  facet normal 0 1 0
    outer loop
      vertex 63 12.5 1.5
      vertex 64.5 12.5 0
      vertex 63 12.5 0
    endloop
  endfacet
  facet normal 0 1 -0
    outer loop
      vertex -1 12.5 1.5
      vertex -2.5 12.5 10
      vertex -1 12.5 10
    endloop
  endfacet
  facet normal 0 1 0
    outer loop
      vertex -2.5 12.5 0
      vertex -1 12.5 1.5
      vertex -1 12.5 0
    endloop
  endfacet
  facet normal 0 1 0
    outer loop
      vertex -1 12.5 1.5
      vertex -2.5 12.5 0
      vertex -2.5 12.5 10
    endloop
  endfacet
  facet normal 0 -1 0
    outer loop
      vertex -2.5 2.5 10
      vertex -1 2.5 1.5
      vertex -1 2.5 10
    endloop
  endfacet
  facet normal 0 -1 0
    outer loop
      vertex -2.5 2.5 0
      vertex -1 2.5 1.5
      vertex -2.5 2.5 10
    endloop
  endfacet
  facet normal 0 -1 -0
    outer loop
      vertex -1 2.5 1.5
      vertex -2.5 2.5 0
      vertex -1 2.5 0
    endloop
  endfacet
  facet normal 0 -1 0
    outer loop
      vertex 63 2.5 1.5
      vertex 64.5 2.5 10
      vertex 63 2.5 10
    endloop
  endfacet
  facet normal 0 -1 0
    outer loop
      vertex 64.5 2.5 0
      vertex 63 2.5 1.5
      vertex 63 2.5 0
    endloop
  endfacet
  facet normal 0 -1 0
    outer loop
      vertex 63 2.5 1.5
      vertex 64.5 2.5 0
      vertex 64.5 2.5 10
    endloop
  endfacet
  facet normal -1 0 0
    outer loop
      vertex -2.5 37.5 0
      vertex -2.5 47.5 10
      vertex -2.5 47.5 0
    endloop
  endfacet
  facet normal -1 -0 0
    outer loop
      vertex -2.5 47.5 10
      vertex -2.5 37.5 0
      vertex -2.5 37.5 10
    endloop
  endfacet
  facet normal -0 0 1
    outer loop
      vertex -2.5 47.5 10
      vertex -1 37.5 10
      vertex -1 47.5 10
    endloop
  endfacet
  facet normal 0 0 1
    outer loop
      vertex -1 37.5 10
      vertex -2.5 47.5 10
      vertex -2.5 37.5 10
    endloop
  endfacet
  facet normal -0 0 1
    outer loop
      vertex 63 47.5 10
      vertex 64.5 37.5 10
      vertex 64.5 47.5 10
    endloop
  endfacet
  facet normal 0 0 1
    outer loop
      vertex 64.5 37.5 10
      vertex 63 47.5 10
      vertex 63 37.5 10
    endloop
  endfacet
  facet normal 1 -0 0
    outer loop
      vertex 64.5 37.5 10
      vertex 64.5 47.5 0
      vertex 64.5 47.5 10
    endloop
  endfacet
  facet normal 1 0 0
    outer loop
      vertex 64.5 47.5 0
      vertex 64.5 37.5 10
      vertex 64.5 37.5 0
    endloop
  endfacet
  facet normal 0 -1 0
    outer loop
      vertex -2.5 37.5 10
      vertex -1 37.5 1.5
      vertex -1 37.5 10
    endloop
  endfacet
  facet normal 0 -1 0
    outer loop
      vertex -2.5 37.5 0
      vertex -1 37.5 1.5
      vertex -2.5 37.5 10
    endloop
  endfacet
  facet normal 0 -1 -0
    outer loop
      vertex -1 37.5 1.5
      vertex -2.5 37.5 0
      vertex -1 37.5 0
    endloop
  endfacet
  facet normal 0 -1 0
    outer loop
      vertex 63 37.5 1.5
      vertex 64.5 37.5 10
      vertex 63 37.5 10
    endloop
  endfacet
  facet normal 0 -1 0
    outer loop
      vertex 64.5 37.5 0
      vertex 63 37.5 1.5
      vertex 63 37.5 0
    endloop
  endfacet
  facet normal 0 -1 0
    outer loop
      vertex 63 37.5 1.5
      vertex 64.5 37.5 0
      vertex 64.5 37.5 10
    endloop
  endfacet
  facet normal 0 1 0
    outer loop
      vertex 64.5 47.5 10
      vertex 63 47.5 1.5
      vertex 63 47.5 10
    endloop
  endfacet
  facet normal 0 1 -0
    outer loop
      vertex 64.5 47.5 0
      vertex 63 47.5 1.5
      vertex 64.5 47.5 10
    endloop
  endfacet
  facet normal 0 1 0
    outer loop
      vertex 63 47.5 1.5
      vertex 64.5 47.5 0
      vertex 63 47.5 0
    endloop
  endfacet
  facet normal 0 1 -0
    outer loop
      vertex -1 47.5 1.5
      vertex -2.5 47.5 10
      vertex -1 47.5 10
    endloop
  endfacet
  facet normal 0 1 0
    outer loop
      vertex -2.5 47.5 0
      vertex -1 47.5 1.5
      vertex -1 47.5 0
    endloop
  endfacet
  facet normal 0 1 0
    outer loop
      vertex -1 47.5 1.5
      vertex -2.5 47.5 0
      vertex -2.5 47.5 10
    endloop
  endfacet
  facet normal 0 0 1
    outer loop
      vertex -1 47.5 1.5
      vertex 63 47.5 1.5
      vertex 63 63 1.5
    endloop
  endfacet
  facet normal 0 0 1
    outer loop
      vertex 63 47.5 1.5
      vertex -1 47.5 1.5
      vertex 63 37.5 1.5
    endloop
  endfacet
  facet normal 0 0 1
    outer loop
      vertex 63 37.5 1.5
      vertex -1 37.5 1.5
      vertex 63 12.5 1.5
    endloop
  endfacet
  facet normal 0 0 1
    outer loop
      vertex -1 12.5 1.5
      vertex 63 12.5 1.5
      vertex -1 37.5 1.5
    endloop
  endfacet
  facet normal 0 0 1
    outer loop
      vertex -1 47.5 1.5
      vertex 63 63 1.5
      vertex -1 63 1.5
    endloop
  endfacet
  facet normal 0 0 1
    outer loop
      vertex 63 37.5 1.5
      vertex -1 47.5 1.5
      vertex -1 37.5 1.5
    endloop
  endfacet
  facet normal 0 0 1
    outer loop
      vertex 63 12.5 1.5
      vertex -1 12.5 1.5
      vertex 63 2.5 1.5
    endloop
  endfacet
  facet normal 0 0 1
    outer loop
      vertex -1 2.5 1.5
      vertex 63 2.5 1.5
      vertex -1 12.5 1.5
    endloop
  endfacet
  facet normal 0 0 1
    outer loop
      vertex 63 2.5 1.5
      vertex -1 2.5 1.5
      vertex 63 -1 1.5
    endloop
  endfacet
  facet normal 0 0 1
    outer loop
      vertex 63 -1 1.5
      vertex -1 2.5 1.5
      vertex -1 -1 1.5
    endloop
  endfacet
endsolid OpenSCAD_Model
